<svg xmlns="http://www.w3.org/2000/svg" xmlns:xlink="http://www.w3.org/1999/xlink" width="596" zoomAndPan="magnify" viewBox="0 0 446.88 446.999989" height="596" preserveAspectRatio="xMidYMid meet" version="1.0"><defs><clipPath id="fe056790d3"><path d="M 0 0.0585938 L 446.285156 0.0585938 L 446.285156 446.347656 L 0 446.347656 Z M 0 0.0585938 " clip-rule="nonzero"/></clipPath><clipPath id="1f770a2459"><path d="M 223.144531 0.0585938 C 99.90625 0.0585938 0 99.964844 0 223.203125 C 0 346.441406 99.90625 446.347656 223.144531 446.347656 C 346.382812 446.347656 446.285156 346.441406 446.285156 223.203125 C 446.285156 99.964844 346.382812 0.0585938 223.144531 0.0585938 Z M 223.144531 0.0585938 " clip-rule="nonzero"/></clipPath><clipPath id="7361850bf9"><path d="M 0 0.0585938 L 446.285156 0.0585938 L 446.285156 446.347656 L 0 446.347656 Z M 0 0.0585938 " clip-rule="nonzero"/></clipPath><clipPath id="a4390deaf2"><path d="M 223.144531 0.0585938 C 99.90625 0.0585938 0 99.964844 0 223.203125 C 0 346.441406 99.90625 446.347656 223.144531 446.347656 C 346.382812 446.347656 446.285156 346.441406 446.285156 223.203125 C 446.285156 99.964844 346.382812 0.0585938 223.144531 0.0585938 Z M 223.144531 0.0585938 " clip-rule="nonzero"/></clipPath><clipPath id="3acc260775"><rect x="0" width="447" y="0" height="447"/></clipPath><clipPath id="2fa2ebf62b"><path d="M 130.925781 53.738281 L 315.375 53.738281 L 315.375 392.644531 L 130.925781 392.644531 Z M 130.925781 53.738281 " clip-rule="nonzero"/></clipPath></defs><g clip-path="url(#fe056790d3)"><g clip-path="url(#1f770a2459)"><g transform="matrix(1, 0, 0, 1, 0, -0.000000000000026257)"><g clip-path="url(#3acc260775)"><g clip-path="url(#7361850bf9)"><g clip-path="url(#a4390deaf2)"><path fill="#16b674" d="M 0 0.0585938 L 446.285156 0.0585938 L 446.285156 446.347656 L 0 446.347656 Z M 0 0.0585938 " fill-opacity="1" fill-rule="nonzero"/></g></g></g></g></g></g><g clip-path="url(#2fa2ebf62b)"><path fill="#ffffff" d="M 315.320312 53.738281 L 156.21875 229.8125 L 204.828125 252.242188 L 130.957031 392.667969 L 282.285156 223.121094 L 237.847656 198.550781 Z M 315.320312 53.738281 " fill-opacity="1" fill-rule="nonzero"/></g></svg>